<svg width="20" height="20" viewBox="0 0 20 20" fill="none" xmlns="http://www.w3.org/2000/svg">
<path d="M7.27273 0H1.81818C0.814028 0 0 0.814028 0 1.81818V7.27273C0 8.27688 0.814028 9.09091 1.81818 9.09091H7.27273C8.27688 9.09091 9.09091 8.27688 9.09091 7.27273V1.81818C9.09091 0.814028 8.27688 0 7.27273 0Z" fill="#8364E2"/>
<path d="M7.27273 10.9091H1.81818C0.814028 10.9091 0 11.7231 0 12.7273V18.1818C0 19.186 0.814028 20 1.81818 20H7.27273C8.27688 20 9.09091 19.186 9.09091 18.1818V12.7273C9.09091 11.7231 8.27688 10.9091 7.27273 10.9091Z" fill="#8364E2"/>
<path d="M18.1818 0H12.7273C11.7231 0 10.9091 0.814028 10.9091 1.81818V7.27273C10.9091 8.27688 11.7231 9.09091 12.7273 9.09091H18.1818C19.186 9.09091 20 8.27688 20 7.27273V1.81818C20 0.814028 19.186 0 18.1818 0Z" fill="#8364E2"/>
<path d="M18.1818 10.9091H12.7273C11.7231 10.9091 10.9091 11.7231 10.9091 12.7273V18.1818C10.9091 19.186 11.7231 20 12.7273 20H18.1818C19.186 20 20 19.186 20 18.1818V12.7273C20 11.7231 19.186 10.9091 18.1818 10.9091Z" fill="#8364E2"/>
</svg>
